<svg width="66" height="66" viewBox="0 0 66 66" fill="none" xmlns="http://www.w3.org/2000/svg">
<circle r="32.5" transform="matrix(-1 0 0 1 33 33)" fill="#3A3A3A" stroke="white"/>
<g clip-path="url(#clip0_187_2610)">
<path d="M28.0079 34C28.0079 33.7491 28.1037 33.4982 28.2949 33.3069L34.3146 27.2872C34.6976 26.9043 35.3184 26.9043 35.7012 27.2872C36.084 27.67 36.084 28.2907 35.7012 28.6737L30.3746 34L35.701 39.3263C36.0838 39.7092 36.0838 40.3299 35.701 40.7126C35.3182 41.0957 34.6974 41.0957 34.3145 40.7126L28.2947 34.693C28.1035 34.5017 28.0079 34.2508 28.0079 34Z" fill="white"/>
</g>
<defs>
<clipPath id="clip0_187_2610">
<rect width="14" height="14" fill="white" transform="translate(39 27) rotate(90)"/>
</clipPath>
</defs>
</svg>
