<svg width="65" height="65" viewBox="0 0 65 65" fill="none" xmlns="http://www.w3.org/2000/svg">
<circle cx="32.5" cy="32.5" r="32.5" fill="#34BBDA"/>
<g clip-path="url(#clip0_187_62)">
<path d="M36.777 32.5C36.777 32.2311 36.6743 31.9623 36.4695 31.7574L30.0198 25.3077C29.6095 24.8974 28.9443 24.8974 28.5342 25.3077C28.124 25.7178 28.124 26.3829 28.5342 26.7932L34.2412 32.5L28.5343 38.2067C28.1242 38.617 28.1242 39.282 28.5343 39.6921C28.9445 40.1026 29.6097 40.1026 30.02 39.6921L36.4697 33.2425C36.6746 33.0375 36.777 32.7687 36.777 32.5Z" fill="white"/>
</g>
<defs>
<clipPath id="clip0_187_62">
<rect width="15" height="15" fill="white" transform="matrix(4.37114e-08 1 1 -4.37114e-08 25 25)"/>
</clipPath>
</defs>
</svg>
